<?xml version="1.0" encoding="UTF-8"?>
<mxfile host="app.diagrams.net" modified="2024-01-01T00:00:00.000Z" agent="5.0" version="21.1.2" etag="chart-generation-flow" type="device">
  <diagram name="Chart Generation State Machine" id="chart-generation-flow">
    <mxGraphModel dx="1800" dy="1000" grid="1" gridSize="10" guides="1" tooltips="1" connect="1" arrows="1" fold="1" page="1" pageScale="1" pageWidth="1600" pageHeight="1200" math="0" shadow="0">
      <root>
        <mxCell id="0" />
        <mxCell id="1" parent="0" />
        
        <!-- Title -->
        <mxCell id="title" value="Chart Generation State Machine Flow" style="text;html=1;strokeColor=none;fillColor=none;align=center;verticalAlign=middle;whiteSpace=wrap;rounded=0;fontSize=24;fontStyle=1" vertex="1" parent="1">
          <mxGeometry x="600" y="20" width="400" height="40" as="geometry" />
        </mxCell>
        
        <!-- Legend -->
        <mxCell id="legend-container" value="Legend" style="swimlane;startSize=30;fillColor=#f5f5f5;" vertex="1" parent="1">
          <mxGeometry x="1300" y="80" width="280" height="200" as="geometry" />
        </mxCell>
        
        <mxCell id="legend-state" value="State Node" style="rounded=1;whiteSpace=wrap;html=1;fillColor=#dae8fc;strokeColor=#6c8ebf;" vertex="1" parent="legend-container">
          <mxGeometry x="20" y="40" width="100" height="30" as="geometry" />
        </mxCell>
        
        <mxCell id="legend-decision" value="Decision Node" style="rhombus;whiteSpace=wrap;html=1;fillColor=#fff2cc;strokeColor=#d6b656;" vertex="1" parent="legend-container">
          <mxGeometry x="140" y="35" width="120" height="40" as="geometry" />
        </mxCell>
        
        <mxCell id="legend-terminal" value="Terminal State" style="ellipse;whiteSpace=wrap;html=1;fillColor=#60a917;strokeColor=#2D7600;fontColor=#ffffff;" vertex="1" parent="legend-container">
          <mxGeometry x="20" y="90" width="100" height="40" as="geometry" />
        </mxCell>
        
        <mxCell id="legend-error" value="Error State" style="rounded=1;whiteSpace=wrap;html=1;fillColor=#f8cecc;strokeColor=#b85450;" vertex="1" parent="legend-container">
          <mxGeometry x="140" y="90" width="120" height="40" as="geometry" />
        </mxCell>
        
        <mxCell id="legend-edge" value="→ Flow Direction" style="text;html=1;strokeColor=none;fillColor=none;align=left;verticalAlign=middle;whiteSpace=wrap;rounded=0;" vertex="1" parent="legend-container">
          <mxGeometry x="20" y="140" width="100" height="30" as="geometry" />
        </mxCell>
        
        <mxCell id="legend-retry" value="⟲ Retry Loop" style="text;html=1;strokeColor=none;fillColor=none;align=left;verticalAlign=middle;whiteSpace=wrap;rounded=0;" vertex="1" parent="legend-container">
          <mxGeometry x="140" y="140" width="120" height="30" as="geometry" />
        </mxCell>
        
        <!-- State Machine Container -->
        <mxCell id="state-machine-container" value="" style="swimlane;startSize=0;" vertex="1" parent="1">
          <mxGeometry x="40" y="100" width="1200" height="1050" as="geometry" />
        </mxCell>
        
        <!-- Start Node -->
        <mxCell id="start" value="START" style="ellipse;whiteSpace=wrap;html=1;fillColor=#60a917;strokeColor=#2D7600;fontColor=#ffffff;fontSize=14;fontStyle=1;" vertex="1" parent="state-machine-container">
          <mxGeometry x="550" y="20" width="100" height="60" as="geometry" />
        </mxCell>
        
        <!-- Planning State -->
        <mxCell id="planning" value="Planning&#xa;State" style="rounded=1;whiteSpace=wrap;html=1;fillColor=#dae8fc;strokeColor=#6c8ebf;fontSize=12;" vertex="1" parent="state-machine-container">
          <mxGeometry x="530" y="120" width="140" height="60" as="geometry" />
        </mxCell>
        
        <mxCell id="planning-details" value="• Analyze user request&#xa;• Determine chart type&#xa;• Create execution plan&#xa;• Check if clarification needed" style="text;html=1;strokeColor=none;fillColor=#e1d5e7;align=left;verticalAlign=top;whiteSpace=wrap;rounded=0;fontSize=10;" vertex="1" parent="state-machine-container">
          <mxGeometry x="690" y="120" width="180" height="60" as="geometry" />
        </mxCell>
        
        <!-- Clarifying Branch -->
        <mxCell id="clarifying" value="Clarifying&#xa;State" style="rounded=1;whiteSpace=wrap;html=1;fillColor=#fff2cc;strokeColor=#d6b656;fontSize=12;" vertex="1" parent="state-machine-container">
          <mxGeometry x="330" y="220" width="140" height="60" as="geometry" />
        </mxCell>
        
        <mxCell id="clarifying-details" value="• Ask user for clarification&#xa;• Provide options&#xa;• Exit and wait for response" style="text;html=1;strokeColor=none;fillColor=#ffe6cc;align=left;verticalAlign=top;whiteSpace=wrap;rounded=0;fontSize=10;" vertex="1" parent="state-machine-container">
          <mxGeometry x="140" y="220" width="180" height="60" as="geometry" />
        </mxCell>
        
        <!-- Understanding Schema State -->
        <mxCell id="understanding-schema" value="Understanding&#xa;Schema State" style="rounded=1;whiteSpace=wrap;html=1;fillColor=#dae8fc;strokeColor=#6c8ebf;fontSize=12;" vertex="1" parent="state-machine-container">
          <mxGeometry x="530" y="320" width="140" height="60" as="geometry" />
        </mxCell>
        
        <mxCell id="schema-details" value="• Query RAG memory&#xa;• Retrieve relevant tables&#xa;• Get schema information&#xa;• Build context" style="text;html=1;strokeColor=none;fillColor=#e1d5e7;align=left;verticalAlign=top;whiteSpace=wrap;rounded=0;fontSize=10;" vertex="1" parent="state-machine-container">
          <mxGeometry x="690" y="320" width="180" height="60" as="geometry" />
        </mxCell>
        
        <!-- Generating Query State -->
        <mxCell id="generating-query" value="Generating&#xa;Query State" style="rounded=1;whiteSpace=wrap;html=1;fillColor=#dae8fc;strokeColor=#6c8ebf;fontSize=12;" vertex="1" parent="state-machine-container">
          <mxGeometry x="530" y="420" width="140" height="60" as="geometry" />
        </mxCell>
        
        <mxCell id="query-details" value="• Use LLM to generate SQL&#xa;• Optimize for chart type&#xa;• Include aggregations&#xa;• Apply sampling if needed" style="text;html=1;strokeColor=none;fillColor=#e1d5e7;align=left;verticalAlign=top;whiteSpace=wrap;rounded=0;fontSize=10;" vertex="1" parent="state-machine-container">
          <mxGeometry x="690" y="420" width="180" height="60" as="geometry" />
        </mxCell>
        
        <!-- Executing Query State -->
        <mxCell id="executing-query" value="Executing&#xa;Query State" style="rounded=1;whiteSpace=wrap;html=1;fillColor=#dae8fc;strokeColor=#6c8ebf;fontSize=12;" vertex="1" parent="state-machine-container">
          <mxGeometry x="530" y="520" width="140" height="60" as="geometry" />
        </mxCell>
        
        <mxCell id="execute-details" value="• Use SQL MCP tool&#xa;• Execute query safely&#xa;• Track execution time&#xa;• Handle errors" style="text;html=1;strokeColor=none;fillColor=#e1d5e7;align=left;verticalAlign=top;whiteSpace=wrap;rounded=0;fontSize=10;" vertex="1" parent="state-machine-container">
          <mxGeometry x="690" y="520" width="180" height="60" as="geometry" />
        </mxCell>
        
        <!-- Validating Results State -->
        <mxCell id="validating-results" value="Validating&#xa;Results State" style="rounded=1;whiteSpace=wrap;html=1;fillColor=#dae8fc;strokeColor=#6c8ebf;fontSize=12;" vertex="1" parent="state-machine-container">
          <mxGeometry x="530" y="620" width="140" height="60" as="geometry" />
        </mxCell>
        
        <mxCell id="validate-details" value="• Check data structure&#xa;• Verify row count&#xa;• Validate data types&#xa;• Check for nulls" style="text;html=1;strokeColor=none;fillColor=#e1d5e7;align=left;verticalAlign=top;whiteSpace=wrap;rounded=0;fontSize=10;" vertex="1" parent="state-machine-container">
          <mxGeometry x="690" y="620" width="180" height="60" as="geometry" />
        </mxCell>
        
        <!-- Decision Diamond -->
        <mxCell id="validation-decision" value="Valid?" style="rhombus;whiteSpace=wrap;html=1;fillColor=#fff2cc;strokeColor=#d6b656;fontSize=12;" vertex="1" parent="state-machine-container">
          <mxGeometry x="560" y="720" width="80" height="80" as="geometry" />
        </mxCell>
        
        <!-- Retry Path -->
        <mxCell id="retry-updater" value="Retry&#xa;Updater" style="rounded=1;whiteSpace=wrap;html=1;fillColor=#e1d5e7;strokeColor=#9673a6;fontSize=12;" vertex="1" parent="state-machine-container">
          <mxGeometry x="380" y="730" width="100" height="60" as="geometry" />
        </mxCell>
        
        <mxCell id="retry-check" value="Retry&#xa;Count &lt; 3?" style="rhombus;whiteSpace=wrap;html=1;fillColor=#fff2cc;strokeColor=#d6b656;fontSize=12;" vertex="1" parent="state-machine-container">
          <mxGeometry x="390" y="620" width="80" height="80" as="geometry" />
        </mxCell>
        
        <!-- Next Step Path -->
        <mxCell id="next-step-check" value="More&#xa;Steps?" style="rhombus;whiteSpace=wrap;html=1;fillColor=#fff2cc;strokeColor=#d6b656;fontSize=12;" vertex="1" parent="state-machine-container">
          <mxGeometry x="720" y="720" width="80" height="80" as="geometry" />
        </mxCell>
        
        <mxCell id="next-step-updater" value="Next Step&#xa;Updater" style="rounded=1;whiteSpace=wrap;html=1;fillColor=#e1d5e7;strokeColor=#9673a6;fontSize=12;" vertex="1" parent="state-machine-container">
          <mxGeometry x="880" y="730" width="100" height="60" as="geometry" />
        </mxCell>
        
        <!-- Transforming Data State -->
        <mxCell id="transforming-data" value="Transforming&#xa;Data State" style="rounded=1;whiteSpace=wrap;html=1;fillColor=#dae8fc;strokeColor=#6c8ebf;fontSize=12;" vertex="1" parent="state-machine-container">
          <mxGeometry x="530" y="850" width="140" height="60" as="geometry" />
        </mxCell>
        
        <mxCell id="transform-details" value="• Convert to Nivo format&#xa;• Apply chart config&#xa;• Add title/description&#xa;• Format for UI" style="text;html=1;strokeColor=none;fillColor=#e1d5e7;align=left;verticalAlign=top;whiteSpace=wrap;rounded=0;fontSize=10;" vertex="1" parent="state-machine-container">
          <mxGeometry x="690" y="850" width="180" height="60" as="geometry" />
        </mxCell>
        
        <!-- End States -->
        <mxCell id="end-success" value="SUCCESS&#xa;(Chart Ready)" style="ellipse;whiteSpace=wrap;html=1;fillColor=#60a917;strokeColor=#2D7600;fontColor=#ffffff;fontSize=12;fontStyle=1;" vertex="1" parent="state-machine-container">
          <mxGeometry x="540" y="960" width="120" height="60" as="geometry" />
        </mxCell>
        
        <mxCell id="end-clarify" value="CLARIFICATION&#xa;NEEDED" style="ellipse;whiteSpace=wrap;html=1;fillColor=#fff2cc;strokeColor=#d6b656;fontSize=12;fontStyle=1;" vertex="1" parent="state-machine-container">
          <mxGeometry x="340" y="320" width="120" height="60" as="geometry" />
        </mxCell>
        
        <mxCell id="end-error" value="FAILED" style="ellipse;whiteSpace=wrap;html=1;fillColor=#f8cecc;strokeColor=#b85450;fontColor=#ffffff;fontSize=12;fontStyle=1;" vertex="1" parent="state-machine-container">
          <mxGeometry x="160" y="730" width="120" height="60" as="geometry" />
        </mxCell>
        
        <!-- Progress Indicators -->
        <mxCell id="progress-container" value="Progress Tracking" style="swimlane;startSize=30;fillColor=#f5f5f5;" vertex="1" parent="state-machine-container">
          <mxGeometry x="920" y="100" width="260" height="300" as="geometry" />
        </mxCell>
        
        <mxCell id="progress-10" value="Planning: 10%" style="text;html=1;strokeColor=none;fillColor=none;align=left;verticalAlign=middle;whiteSpace=wrap;rounded=0;fontSize=11;" vertex="1" parent="progress-container">
          <mxGeometry x="10" y="40" width="240" height="20" as="geometry" />
        </mxCell>
        
        <mxCell id="progress-20" value="Understanding Schema: 20%" style="text;html=1;strokeColor=none;fillColor=none;align=left;verticalAlign=middle;whiteSpace=wrap;rounded=0;fontSize=11;" vertex="1" parent="progress-container">
          <mxGeometry x="10" y="70" width="240" height="20" as="geometry" />
        </mxCell>
        
        <mxCell id="progress-30" value="Generating Query: 30%" style="text;html=1;strokeColor=none;fillColor=none;align=left;verticalAlign=middle;whiteSpace=wrap;rounded=0;fontSize=11;" vertex="1" parent="progress-container">
          <mxGeometry x="10" y="100" width="240" height="20" as="geometry" />
        </mxCell>
        
        <mxCell id="progress-50" value="Executing Query: 50%" style="text;html=1;strokeColor=none;fillColor=none;align=left;verticalAlign=middle;whiteSpace=wrap;rounded=0;fontSize=11;" vertex="1" parent="progress-container">
          <mxGeometry x="10" y="130" width="240" height="20" as="geometry" />
        </mxCell>
        
        <mxCell id="progress-70" value="Validating Results: 70%" style="text;html=1;strokeColor=none;fillColor=none;align=left;verticalAlign=middle;whiteSpace=wrap;rounded=0;fontSize=11;" vertex="1" parent="progress-container">
          <mxGeometry x="10" y="160" width="240" height="20" as="geometry" />
        </mxCell>
        
        <mxCell id="progress-90" value="Transforming Data: 90%" style="text;html=1;strokeColor=none;fillColor=none;align=left;verticalAlign=middle;whiteSpace=wrap;rounded=0;fontSize=11;" vertex="1" parent="progress-container">
          <mxGeometry x="10" y="190" width="240" height="20" as="geometry" />
        </mxCell>
        
        <mxCell id="progress-100" value="Completed: 100%" style="text;html=1;strokeColor=none;fillColor=none;align=left;verticalAlign=middle;whiteSpace=wrap;rounded=0;fontSize=11;" vertex="1" parent="progress-container">
          <mxGeometry x="10" y="220" width="240" height="20" as="geometry" />
        </mxCell>
        
        <mxCell id="progress-note" value="Progress updates sent via callback" style="text;html=1;strokeColor=none;fillColor=none;align=center;verticalAlign=middle;whiteSpace=wrap;rounded=0;fontSize=10;fontStyle=2;" vertex="1" parent="progress-container">
          <mxGeometry x="10" y="260" width="240" height="30" as="geometry" />
        </mxCell>
        
        <!-- Flow Arrows -->
        <mxCell id="flow-start-planning" style="edgeStyle=orthogonalEdgeStyle;rounded=0;orthogonalLoop=1;jettySize=auto;html=1;entryX=0.5;entryY=0;entryDx=0;entryDy=0;" edge="1" parent="state-machine-container" source="start" target="planning">
          <mxGeometry relative="1" as="geometry" />
        </mxCell>
        
        <mxCell id="flow-planning-clarify" style="edgeStyle=orthogonalEdgeStyle;rounded=0;orthogonalLoop=1;jettySize=auto;html=1;strokeColor=#d6b656;strokeWidth=2;" edge="1" parent="state-machine-container" source="planning" target="clarifying">
          <mxGeometry relative="1" as="geometry">
            <Array as="points">
              <mxPoint x="400" y="150" />
            </Array>
          </mxGeometry>
        </mxCell>
        
        <mxCell id="label-clarify" value="Needs&#xa;Clarification" style="text;html=1;strokeColor=none;fillColor=none;align=center;verticalAlign=middle;whiteSpace=wrap;rounded=0;fontSize=10;" vertex="1" parent="state-machine-container">
          <mxGeometry x="420" y="160" width="80" height="30" as="geometry" />
        </mxCell>
        
        <mxCell id="flow-planning-schema" style="edgeStyle=orthogonalEdgeStyle;rounded=0;orthogonalLoop=1;jettySize=auto;html=1;" edge="1" parent="state-machine-container" source="planning" target="understanding-schema">
          <mxGeometry relative="1" as="geometry" />
        </mxCell>
        
        <mxCell id="flow-clarify-end" style="edgeStyle=orthogonalEdgeStyle;rounded=0;orthogonalLoop=1;jettySize=auto;html=1;strokeColor=#d6b656;strokeWidth=2;" edge="1" parent="state-machine-container" source="clarifying" target="end-clarify">
          <mxGeometry relative="1" as="geometry" />
        </mxCell>
        
        <mxCell id="flow-schema-query" style="edgeStyle=orthogonalEdgeStyle;rounded=0;orthogonalLoop=1;jettySize=auto;html=1;" edge="1" parent="state-machine-container" source="understanding-schema" target="generating-query">
          <mxGeometry relative="1" as="geometry" />
        </mxCell>
        
        <mxCell id="flow-query-execute" style="edgeStyle=orthogonalEdgeStyle;rounded=0;orthogonalLoop=1;jettySize=auto;html=1;" edge="1" parent="state-machine-container" source="generating-query" target="executing-query">
          <mxGeometry relative="1" as="geometry" />
        </mxCell>
        
        <mxCell id="flow-execute-validate" style="edgeStyle=orthogonalEdgeStyle;rounded=0;orthogonalLoop=1;jettySize=auto;html=1;" edge="1" parent="state-machine-container" source="executing-query" target="validating-results">
          <mxGeometry relative="1" as="geometry" />
        </mxCell>
        
        <mxCell id="flow-validate-decision" style="edgeStyle=orthogonalEdgeStyle;rounded=0;orthogonalLoop=1;jettySize=auto;html=1;" edge="1" parent="state-machine-container" source="validating-results" target="validation-decision">
          <mxGeometry relative="1" as="geometry" />
        </mxCell>
        
        <mxCell id="flow-decision-retry" style="edgeStyle=orthogonalEdgeStyle;rounded=0;orthogonalLoop=1;jettySize=auto;html=1;strokeColor=#b85450;strokeWidth=2;" edge="1" parent="state-machine-container" source="validation-decision" target="retry-check">
          <mxGeometry relative="1" as="geometry">
            <Array as="points">
              <mxPoint x="430" y="760" />
            </Array>
          </mxGeometry>
        </mxCell>
        
        <mxCell id="label-invalid" value="Invalid" style="text;html=1;strokeColor=none;fillColor=none;align=center;verticalAlign=middle;whiteSpace=wrap;rounded=0;fontSize=10;" vertex="1" parent="state-machine-container">
          <mxGeometry x="470" y="740" width="50" height="20" as="geometry" />
        </mxCell>
        
        <mxCell id="flow-retry-check-yes" style="edgeStyle=orthogonalEdgeStyle;rounded=0;orthogonalLoop=1;jettySize=auto;html=1;" edge="1" parent="state-machine-container" source="retry-check" target="retry-updater">
          <mxGeometry relative="1" as="geometry" />
        </mxCell>
        
        <mxCell id="label-retry-yes" value="Yes" style="text;html=1;strokeColor=none;fillColor=none;align=center;verticalAlign=middle;whiteSpace=wrap;rounded=0;fontSize=10;" vertex="1" parent="state-machine-container">
          <mxGeometry x="430" y="700" width="30" height="20" as="geometry" />
        </mxCell>
        
        <mxCell id="flow-retry-check-no" style="edgeStyle=orthogonalEdgeStyle;rounded=0;orthogonalLoop=1;jettySize=auto;html=1;strokeColor=#b85450;strokeWidth=2;" edge="1" parent="state-machine-container" source="retry-check" target="end-error">
          <mxGeometry relative="1" as="geometry">
            <Array as="points">
              <mxPoint x="320" y="660" />
              <mxPoint x="320" y="760" />
            </Array>
          </mxGeometry>
        </mxCell>
        
        <mxCell id="label-retry-no" value="No" style="text;html=1;strokeColor=none;fillColor=none;align=center;verticalAlign=middle;whiteSpace=wrap;rounded=0;fontSize=10;" vertex="1" parent="state-machine-container">
          <mxGeometry x="330" y="640" width="30" height="20" as="geometry" />
        </mxCell>
        
        <mxCell id="flow-retry-updater-query" style="edgeStyle=orthogonalEdgeStyle;rounded=0;orthogonalLoop=1;jettySize=auto;html=1;strokeColor=#9673a6;strokeWidth=2;dashed=1;" edge="1" parent="state-machine-container" source="retry-updater" target="generating-query">
          <mxGeometry relative="1" as="geometry">
            <Array as="points">
              <mxPoint x="360" y="760" />
              <mxPoint x="360" y="450" />
            </Array>
          </mxGeometry>
        </mxCell>
        
        <mxCell id="label-retry-loop" value="Retry with&#xa;improvements" style="text;html=1;strokeColor=none;fillColor=none;align=center;verticalAlign=middle;whiteSpace=wrap;rounded=0;fontSize=10;" vertex="1" parent="state-machine-container">
          <mxGeometry x="270" y="570" width="80" height="30" as="geometry" />
        </mxCell>
        
        <mxCell id="flow-decision-next" style="edgeStyle=orthogonalEdgeStyle;rounded=0;orthogonalLoop=1;jettySize=auto;html=1;strokeColor=#2D7600;strokeWidth=2;" edge="1" parent="state-machine-container" source="validation-decision" target="next-step-check">
          <mxGeometry relative="1" as="geometry">
            <Array as="points">
              <mxPoint x="700" y="760" />
            </Array>
          </mxGeometry>
        </mxCell>
        
        <mxCell id="label-valid" value="Valid" style="text;html=1;strokeColor=none;fillColor=none;align=center;verticalAlign=middle;whiteSpace=wrap;rounded=0;fontSize=10;" vertex="1" parent="state-machine-container">
          <mxGeometry x="650" y="740" width="40" height="20" as="geometry" />
        </mxCell>
        
        <mxCell id="flow-next-check-yes" style="edgeStyle=orthogonalEdgeStyle;rounded=0;orthogonalLoop=1;jettySize=auto;html=1;" edge="1" parent="state-machine-container" source="next-step-check" target="next-step-updater">
          <mxGeometry relative="1" as="geometry" />
        </mxCell>
        
        <mxCell id="label-next-yes" value="Yes" style="text;html=1;strokeColor=none;fillColor=none;align=center;verticalAlign=middle;whiteSpace=wrap;rounded=0;fontSize=10;" vertex="1" parent="state-machine-container">
          <mxGeometry x="810" y="740" width="30" height="20" as="geometry" />
        </mxCell>
        
        <mxCell id="flow-next-check-no" style="edgeStyle=orthogonalEdgeStyle;rounded=0;orthogonalLoop=1;jettySize=auto;html=1;strokeColor=#2D7600;strokeWidth=2;" edge="1" parent="state-machine-container" source="next-step-check" target="transforming-data">
          <mxGeometry relative="1" as="geometry">
            <Array as="points">
              <mxPoint x="760" y="830" />
              <mxPoint x="600" y="830" />
            </Array>
          </mxGeometry>
        </mxCell>
        
        <mxCell id="label-next-no" value="No" style="text;html=1;strokeColor=none;fillColor=none;align=center;verticalAlign=middle;whiteSpace=wrap;rounded=0;fontSize=10;" vertex="1" parent="state-machine-container">
          <mxGeometry x="760" y="800" width="30" height="20" as="geometry" />
        </mxCell>
        
        <mxCell id="flow-next-updater-query" style="edgeStyle=orthogonalEdgeStyle;rounded=0;orthogonalLoop=1;jettySize=auto;html=1;strokeColor=#2D7600;strokeWidth=2;dashed=1;" edge="1" parent="state-machine-container" source="next-step-updater" target="generating-query">
          <mxGeometry relative="1" as="geometry">
            <Array as="points">
              <mxPoint x="1020" y="760" />
              <mxPoint x="1020" y="450" />
            </Array>
          </mxGeometry>
        </mxCell>
        
        <mxCell id="label-next-loop" value="Next SQL&#xa;query" style="text;html=1;strokeColor=none;fillColor=none;align=center;verticalAlign=middle;whiteSpace=wrap;rounded=0;fontSize=10;" vertex="1" parent="state-machine-container">
          <mxGeometry x="950" y="570" width="60" height="30" as="geometry" />
        </mxCell>
        
        <mxCell id="flow-transform-success" style="edgeStyle=orthogonalEdgeStyle;rounded=0;orthogonalLoop=1;jettySize=auto;html=1;strokeColor=#2D7600;strokeWidth=2;" edge="1" parent="state-machine-container" source="transforming-data" target="end-success">
          <mxGeometry relative="1" as="geometry" />
        </mxCell>
        
        <!-- Error Paths -->
        <mxCell id="flow-planning-error" style="edgeStyle=orthogonalEdgeStyle;rounded=0;orthogonalLoop=1;jettySize=auto;html=1;strokeColor=#b85450;strokeWidth=1;dashed=1;" edge="1" parent="state-machine-container" source="planning" target="end-error">
          <mxGeometry relative="1" as="geometry">
            <Array as="points">
              <mxPoint x="140" y="150" />
              <mxPoint x="140" y="760" />
            </Array>
          </mxGeometry>
        </mxCell>
        
        <mxCell id="flow-query-error" style="edgeStyle=orthogonalEdgeStyle;rounded=0;orthogonalLoop=1;jettySize=auto;html=1;strokeColor=#b85450;strokeWidth=1;dashed=1;" edge="1" parent="state-machine-container" source="generating-query" target="end-error">
          <mxGeometry relative="1" as="geometry">
            <Array as="points">
              <mxPoint x="120" y="450" />
              <mxPoint x="120" y="760" />
            </Array>
          </mxGeometry>
        </mxCell>
        
        <mxCell id="label-errors" value="Error paths&#xa;(from any state)" style="text;html=1;strokeColor=none;fillColor=none;align=center;verticalAlign=middle;whiteSpace=wrap;rounded=0;fontSize=10;fontStyle=2;" vertex="1" parent="state-machine-container">
          <mxGeometry x="30" y="580" width="90" height="40" as="geometry" />
        </mxCell>
        
      </root>
    </mxGraphModel>
  </diagram>
</mxfile> 